<?xml version="1.0" encoding="UTF-8" standalone="no"?>
<!DOCTYPE svg PUBLIC "-//W3C//DTD SVG 1.1//EN" "http://www.w3.org/Graphics/SVG/1.1/DTD/svg11.dtd">
<svg width="100%" height="100%" viewBox="0 0 403 125" version="1.1" xmlns="http://www.w3.org/2000/svg" xmlns:xlink="http://www.w3.org/1999/xlink" xml:space="preserve" xmlns:serif="http://www.serif.com/" style="fill-rule:evenodd;clip-rule:evenodd;stroke-linejoin:round;stroke-miterlimit:2;">
    <g id="Background" transform="matrix(1.017263,0,0,1.017263,-1.251755,0.245985)">
        <path d="M61.031,108.497C62.064,102.847 61.98,103.036 62.385,101.459C69.497,73.715 89.086,84.398 102.178,41.396C103.184,38.093 118.227,39.134 122.504,39.168C139.208,39.301 136.217,53.288 135.919,70.511C135.674,84.642 116.982,81.072 102.489,81.16C97.182,81.192 101.907,105.776 98.69,112.583C97.402,115.309 94.53,121.386 61.38,117.899C60.631,117.82 59.864,117.739 61.031,108.497Z" style="fill:rgb(60,68,74);fill-opacity:1;"/>
        <path d="M38.503,113.962C20.145,112.742 11.744,93.707 28.771,76.771C38.712,66.883 38.985,67.312 46.573,55.55C60.203,34.421 91.569,55.29 82.952,64.903C64.93,85.011 59.191,82.104 53.841,108.579C53.063,112.428 39.796,113.826 38.503,113.962Z" style="fill:rgb(131,189,135);fill-opacity:1;"/>
        <path d="M294.498,87.961C290.106,87.551 289.88,86.833 289.875,82.502C289.871,78.665 289.819,34.695 289.826,34.542C289.956,31.467 339.82,27.429 334.765,54.56C330.171,79.216 297.894,66.856 297.958,73.509C298.047,82.646 303.437,86.78 294.498,87.961ZM326.044,52.5C324.352,68.415 298.063,65.093 298.027,61.54C297.926,51.395 297.472,40.206 299.381,40.12C313.629,39.476 325.023,38.489 326.044,52.5Z" style="fill:rgb(62,68,75);fill-opacity:1;"/>
        <path d="M243.5,69.967C225.111,70.025 213.866,69.028 215.466,72.514C223.408,89.814 241.061,75.389 244.144,78.84C252.3,87.965 204.337,101.175 206.983,62.527C208.377,42.155 248.799,37.069 249.018,67.491C249.046,71.346 247.191,69.586 243.5,69.967ZM237.497,64.055C230.163,64.052 214.042,65.421 215.279,61.436C221.344,41.903 251.3,61.432 237.497,64.055Z" style="fill:rgb(63,70,76);fill-opacity:1;"/>
        <path d="M373.499,87.96C370.714,87.622 370.1,88.258 369.159,85.577C368.596,83.974 367.442,84.936 367.324,85.034C361.059,90.26 343.054,90.07 340.288,79.569C334.712,58.401 369.74,66.445 368.714,61.472C365.37,45.257 345.838,56.403 344.568,56.235C343.374,56.078 335.373,46.853 355.533,45.917C381.49,44.711 376.977,63.792 376.95,75.5C376.932,83.262 381.251,86.747 373.499,87.96ZM353.536,69.958C364.632,69.442 372.246,66.561 367.878,76.661C362.048,90.142 335.698,75.69 353.536,69.958Z" style="fill:rgb(62,69,75);fill-opacity:1;"/>
        <path d="M179.5,87.958C174.354,87.591 174.916,85.828 152.956,36.32C151.096,32.126 153.986,32.962 158.511,33.057C164.03,33.174 177.633,75.163 179.795,76.042C182.638,77.198 181.748,74.636 196.187,41.362C199.218,34.376 199.006,32.453 206.612,33.067C210.261,33.362 207.416,35.646 189.846,75.646C186.203,83.94 188.617,87.688 179.5,87.958Z" style="fill:rgb(62,68,75);fill-opacity:1;"/>
        <path d="M98.946,19.499C97.829,52.735 62.666,44.425 70.209,19.429C76.803,-2.422 97.873,-4.113 98.946,19.499Z" style="fill:rgb(131,188,135);fill-opacity:1;"/>
        <path d="M30.042,20.501C31.611,-6.068 51.859,-2.019 58.464,17.513C67.085,43.007 30.888,52.188 30.042,20.501Z" style="fill:rgb(131,188,135);fill-opacity:1;"/>
        <path d="M30.953,54.498C30.123,86.668 -10.44,57.879 4.553,37.537C9.447,30.897 28.708,30.389 30.953,54.498Z" style="fill:rgb(131,188,135);fill-opacity:1;"/>
        <path d="M255.496,52.957C233.949,49.616 257.027,46.002 257.61,45.936C259.785,45.688 258.321,36.678 260.493,36.471C270.432,35.524 267.136,43.68 267.195,44.572C267.297,46.13 278.6,46.109 278.855,47.388C280.343,54.876 275.774,51.968 268.358,53.112C266.663,53.373 266.699,54.098 267.18,74.518C267.418,84.582 278.567,80.611 279.259,80.996C291.438,87.771 259.43,94.405 258.979,77.491C258.421,56.575 261.107,53.914 255.496,52.957Z" style="fill:rgb(63,69,75);fill-opacity:1;"/>
        <path d="M393.5,87.965C390.139,87.564 389.549,88.27 389.105,86.603C388.45,84.145 389.007,36.79 389.058,32.458C389.098,29.048 396.422,29.369 397.083,31.585C397.716,33.707 397.186,81.185 397.138,85.498C397.108,88.222 396.192,87.629 393.5,87.965Z" style="fill:rgb(63,68,74);fill-opacity:1;"/>
    </g>
</svg>
